# xmcd
# 
# Track frame offsets:
#     150
#     15136
#     29664
#     45324
#     57476
#     72336
#     85146
#     99430
#     112772
#     123775
#     135538
#     147918
#     160327
#     177487
# 
# Disc length: 2654
# 
# Revision: 0
# Processed by: cddbd v1.5.2PL0 Copyright (c) Steve Scherf et al.
# Submitted via: fre:ac v1.0.17
# 
DISCID=b10a5c0e
DTITLE=Various Artist - I'm a woman... and sing the Blues
DYEAR=0
DGENRE=Blues
TTITLE0=Ma Rainey - See See Rider Blues
TTITLE1=Ida Cox - Mojo Hand Blues
TTITLE2=Bessie Tucker - Bessie's Moan
TTITLE3=Lucille Bogan - You Got To Die Some Day
TTITLE4=Memphis Minnie - Chickasaw Train Blues
TTITLE5=The Yas Yas Girl - Milk Man Blues
TTITLE6=Helen Humes - Million Dollar Secret
TTITLE7=Little Esther - I Gotta Guy
TTITLE8=Big Mama Thornton - Me And My Chauffeur
TTITLE9=Christine Kittrell - I'm A Woman
TTITLE10=Etta James - W-O-M-A-N
TTITLE11=Ike and Tina - My Baby Now
TTITLE12=Koko Taylor - Voodoo Woman
TTITLE13=Barbara Lynn - Watch The One
EXTD=blues and soul recoreds no.66
EXTT0=
EXTT1=
EXTT2=
EXTT3=
EXTT4=
EXTT5=
EXTT6=
EXTT7=
EXTT8=
EXTT9=
EXTT10=
EXTT11=
EXTT12=
EXTT13=
PLAYORDER=
